{
  "source": "C:\\Users\\Peter\\Desktop\\stuff\\MIUN\\quantitative_research\\video_compression\\videos\\BVI-HD\\BVI-HD_CDVL_videos\\ORIG\\PlasmaSlowRandom_1920x1080_60fps.mp4",
  "output": "C:\\Users\\Peter\\Desktop\\stuff\\MIUN\\quantitative_research\\video_compression\\compressed_videos\\BVI-HD\\av1\\2.5\\PlasmaSlowRandom_1920x1080_60fps_av1.mkv",
  "codec": "av1",
  "ok": "Input #0, mov,mp4,m4a,3gp,3g2,mj2, from 'C:\\Users\\Peter\\Desktop\\stuff\\MIUN\\quantitative_research\\video_compression\\videos\\BVI-HD\\BVI-HD_CDVL_videos\\ORIG\\PlasmaSlowRandom_1920x1080_60fps.mp4':\n  Metadata:\n    major_brand     : isom\n    minor_version   : 512\n    compatible_brands: isomiso2avc1mp41\n    encoder         : Lavf54.28.101\n  Duration: 00:00:05.00, start: 0.000000, bitrate: 23030 kb/s\n  Stream #0:0[0x1](und): Video: h264 (High 4:4:4 Predictive) (avc1 / 0x31637661), yuv420p(progressive), 1920x1080, 23026 kb/s, 60 fps, 60 tbr, 60 tbn (default)\n    Metadata:\n      handler_name    : VideoHandler\n      vendor_id       : [0][0][0][0]\n[out#0/matroska @ 00000225fcb24d00] Codec AVOption b:a (set bitrate (in bits/s)) has not been used for any stream. The most likely reason is either wrong type (e.g. a video option with no video streams) or that it is a private option of some decoder which was not actually used for any stream.\nStream mapping:\n  Stream #0:0 -> #0:0 (h264 (native) -> av1 (libsvtav1))\nPress [q] to stop, [?] for help\nSvt[info]: -------------------------------------------\nSvt[info]: SVT [version]:\tSVT-AV1 Encoder Lib v3.1.0-19-g6ecfe8ec\nSvt[info]: SVT [build]  :\tGCC 15.2.0\t 64 bit\nSvt[info]: LIB Build date: Aug 17 2025 11:37:13\nSvt[info]: -------------------------------------------\nSvt[info]: Level of Parallelism: 5\nSvt[info]: Number of PPCS 93\nSvt[info]: [asm level on system : up to avx2]\nSvt[info]: [asm level selected : up to avx2]\nSvt[info]: -------------------------------------------\nSvt[info]: SVT [config]: main profile\ttier (auto)\tlevel (auto)\nSvt[info]: SVT [config]: width / height / fps numerator / fps denominator \t\t: 1920 / 1080 / 60 / 1\nSvt[info]: SVT [config]: bit-depth / color format \t\t\t\t\t: 8 / YUV420\nSvt[info]: SVT [config]: preset / tune / pred struct \t\t\t\t\t: 4 / PSNR / random access\nSvt[info]: SVT [config]: gop size / mini-gop size / key-frame type \t\t\t: 321 / 16 / key frame\nSvt[info]: SVT [config]: BRC mode / target bitrate (kbps)\t\t\t\t: VBR / 2500 \nSvt[info]: SVT [config]: AQ mode / Variance Boost \t\t\t\t\t: 2 / 0\nSvt[info]: SVT [config]: sharpness / luminance-based QP bias \t\t\t\t: 0 / 0\nSvt[info]: SVT [config]: QP scale compress strength \t\t\t\t\t: 0\nSvt[info]: -------------------------------------------\nOutput #0, matroska, to 'C:\\Users\\Peter\\Desktop\\stuff\\MIUN\\quantitative_research\\video_compression\\compressed_videos\\BVI-HD\\av1\\2.5\\PlasmaSlowRandom_1920x1080_60fps_av1.mkv':\n  Metadata:\n    major_brand     : isom\n    minor_version   : 512\n    compatible_brands: isomiso2avc1mp41\n    encoder         : Lavf62.3.100\n  Stream #0:0(und): Video: av1 (AV01 / 0x31305641), yuv420p(tv, progressive), 1920x1080, q=2-31, 2500 kb/s, 60 fps, 1k tbn (default)\n    Metadata:\n      encoder         : Lavc62.11.100 libsvtav1\n      handler_name    : VideoHandler\n      vendor_id       : [0][0][0][0]\n    Side data:\n      cpb: bitrate max/min/avg: 0/0/2500000 buffer size: 2500000 vbv_delay: N/A\nframe=    0 fps=0.0 q=0.0 size=       0KiB time=N/A bitrate=N/A speed=N/A elapsed=0:00:00.51    \nframe=    0 fps=0.0 q=0.0 size=       0KiB time=N/A bitrate=N/A speed=N/A elapsed=0:00:01.09    \nframe=    1 fps=0.6 q=9.0 size=       1KiB time=00:00:00.00 bitrate=N/A speed=   0x elapsed=0:00:01.62    \nframe=    1 fps=0.5 q=9.0 size=       1KiB time=00:00:00.00 bitrate=N/A speed=   0x elapsed=0:00:02.15    \nframe=    5 fps=1.9 q=19.0 size=       1KiB time=00:00:00.06 bitrate=  85.4kbits/s speed=0.0249x elapsed=0:00:02.67    \nframe=   10 fps=3.1 q=19.0 size=       1KiB time=00:00:00.15 bitrate=  38.0kbits/s speed=0.0469x elapsed=0:00:03.19    \nframe=   16 fps=4.3 q=17.0 size=       1KiB time=00:00:00.25 bitrate=  22.8kbits/s speed=0.0675x elapsed=0:00:03.70    \nframe=   21 fps=5.0 q=16.0 size=       1KiB time=00:00:00.33 bitrate=  17.1kbits/s speed=0.0791x elapsed=0:00:04.21    \nframe=   26 fps=5.5 q=15.0 size=       1KiB time=00:00:00.41 bitrate=  13.7kbits/s speed=0.0878x elapsed=0:00:04.74    \nframe=   33 fps=6.3 q=11.0 size=       1KiB time=00:00:00.53 bitrate=  10.7kbits/s speed=0.101x elapsed=0:00:05.26    \nframe=   38 fps=6.6 q=16.0 size=       1KiB time=00:00:00.61 bitrate=   9.2kbits/s speed=0.106x elapsed=0:00:05.79    \nframe=   42 fps=6.6 q=16.0 size=       1KiB time=00:00:00.68 bitrate=   8.3kbits/s speed=0.108x elapsed=0:00:06.32    \nframe=   49 fps=7.2 q=8.0 size=       1KiB time=00:00:00.80 bitrate=   7.1kbits/s speed=0.117x elapsed=0:00:06.82    \nframe=   53 fps=7.2 q=16.0 size=       1KiB time=00:00:00.86 bitrate=   6.6kbits/s speed=0.118x elapsed=0:00:07.34    \nframe=   56 fps=7.1 q=17.0 size=       1KiB time=00:00:00.91 bitrate=   6.2kbits/s speed=0.117x elapsed=0:00:07.85    \nframe=   63 fps=7.5 q=17.0 size=       1KiB time=00:00:01.03 bitrate=   5.5kbits/s speed=0.123x elapsed=0:00:08.37    \nframe=   69 fps=7.8 q=16.0 size=       1KiB time=00:00:01.13 bitrate=   5.0kbits/s speed=0.127x elapsed=0:00:08.90    \nframe=   73 fps=7.7 q=12.0 size=       1KiB time=00:00:01.20 bitrate=   4.7kbits/s speed=0.127x elapsed=0:00:09.44    \nframe=   78 fps=7.8 q=17.0 size=       1KiB time=00:00:01.26 bitrate=   4.5kbits/s speed=0.127x elapsed=0:00:10.00    \nframe=   83 fps=7.9 q=17.0 size=       1KiB time=00:00:01.36 bitrate=   4.2kbits/s speed=0.129x elapsed=0:00:10.56    \nframe=   87 fps=7.8 q=17.0 size=       1KiB time=00:00:01.43 bitrate=   4.0kbits/s speed=0.129x elapsed=0:00:11.08    \nframe=   93 fps=8.0 q=15.0 size=       1KiB time=00:00:01.53 bitrate=   3.7kbits/s speed=0.132x elapsed=0:00:11.59    \nframe=  100 fps=8.2 q=18.0 size=       1KiB time=00:00:01.65 bitrate=   3.5kbits/s speed=0.136x elapsed=0:00:12.12    \nframe=  105 fps=8.3 q=12.0 size=       1KiB time=00:00:01.73 bitrate=   3.3kbits/s speed=0.137x elapsed=0:00:12.63    \nframe=  112 fps=8.5 q=20.0 size=       1KiB time=00:00:01.85 bitrate=   3.1kbits/s speed=0.14x elapsed=0:00:13.18    \nframe=  117 fps=8.5 q=15.0 size=       1KiB time=00:00:01.93 bitrate=   2.9kbits/s speed=0.141x elapsed=0:00:13.71    \nframe=  122 fps=8.6 q=23.0 size=       1KiB time=00:00:02.01 bitrate=   2.8kbits/s speed=0.142x elapsed=0:00:14.22    \nframe=  129 fps=8.7 q=7.0 size=       1KiB time=00:00:02.13 bitrate=   2.7kbits/s speed=0.145x elapsed=0:00:14.75    \nframe=  133 fps=8.7 q=18.0 size=       1KiB time=00:00:02.20 bitrate=   2.6kbits/s speed=0.144x elapsed=0:00:15.27    \nframe=  138 fps=8.7 q=23.0 size=       1KiB time=00:00:02.28 bitrate=   2.5kbits/s speed=0.145x elapsed=0:00:15.79    \nframe=  145 fps=8.9 q=9.0 size=       1KiB time=00:00:02.40 bitrate=   2.4kbits/s speed=0.147x elapsed=0:00:16.33    \nframe=  150 fps=8.9 q=22.0 size=       1KiB time=00:00:02.48 bitrate=   2.3kbits/s speed=0.147x elapsed=0:00:16.85    \nframe=  156 fps=9.0 q=23.0 size=       1KiB time=00:00:02.58 bitrate=   2.2kbits/s speed=0.149x elapsed=0:00:17.36    \nframe=  162 fps=9.1 q=22.0 size=       1KiB time=00:00:02.68 bitrate=   2.1kbits/s speed=0.15x elapsed=0:00:17.87    \nframe=  166 fps=9.0 q=22.0 size=       1KiB time=00:00:02.75 bitrate=   2.1kbits/s speed=0.149x elapsed=0:00:18.39    \nframe=  172 fps=9.1 q=22.0 size=       1KiB time=00:00:02.85 bitrate=   2.0kbits/s speed=0.151x elapsed=0:00:18.91    \nframe=  178 fps=9.2 q=24.0 size=       1KiB time=00:00:02.95 bitrate=   1.9kbits/s speed=0.152x elapsed=0:00:19.44    \nframe=  182 fps=9.1 q=24.0 size=       1KiB time=00:00:03.01 bitrate=   1.9kbits/s speed=0.151x elapsed=0:00:19.96    \nframe=  191 fps=9.3 q=21.0 size=       1KiB time=00:00:03.15 bitrate=   1.8kbits/s speed=0.154x elapsed=0:00:20.48    \nframe=  196 fps=9.3 q=23.0 size=       1KiB time=00:00:03.25 bitrate=   1.8kbits/s speed=0.155x elapsed=0:00:21.02    \nframe=  205 fps=9.5 q=18.0 size=       1KiB time=00:00:03.40 bitrate=   1.7kbits/s speed=0.158x elapsed=0:00:21.55    \nframe=  211 fps=9.6 q=22.0 size=       1KiB time=00:00:03.46 bitrate=   1.6kbits/s speed=0.157x elapsed=0:00:22.07    \nframe=  217 fps=9.6 q=18.0 size=       1KiB time=00:00:03.60 bitrate=   1.6kbits/s speed=0.159x elapsed=0:00:22.60    \nframe=  221 fps=9.6 q=17.0 size=       1KiB time=00:00:03.66 bitrate=   1.6kbits/s speed=0.159x elapsed=0:00:23.12    \nframe=  229 fps=9.7 q=20.0 size=       1KiB time=00:00:03.80 bitrate=   1.5kbits/s speed=0.161x elapsed=0:00:23.64    \nframe=  233 fps=9.6 q=17.0 size=       1KiB time=00:00:03.86 bitrate=   1.5kbits/s speed=0.16x elapsed=0:00:24.16    \nframe=  239 fps=9.7 q=20.0 size=       1KiB time=00:00:03.96 bitrate=   1.4kbits/s speed=0.161x elapsed=0:00:24.67    \nframe=  247 fps=9.8 q=20.0 size=       1KiB time=00:00:04.10 bitrate=   1.4kbits/s speed=0.163x elapsed=0:00:25.19    \nframe=  251 fps=9.8 q=20.0 size=       1KiB time=00:00:04.16 bitrate=   1.4kbits/s speed=0.162x elapsed=0:00:25.69    \nframe=  259 fps=9.9 q=21.0 size=       1KiB time=00:00:04.30 bitrate=   1.3kbits/s speed=0.164x elapsed=0:00:26.22    \nframe=  265 fps=9.9 q=17.0 size=       1KiB time=00:00:04.40 bitrate=   1.3kbits/s speed=0.165x elapsed=0:00:26.73    \nframe=  269 fps=9.9 q=20.0 size=       1KiB time=00:00:04.46 bitrate=   1.3kbits/s speed=0.164x elapsed=0:00:27.24    \nframe=  277 fps= 10 q=22.0 size=       1KiB time=00:00:04.60 bitrate=   1.2kbits/s speed=0.166x elapsed=0:00:27.76    \nframe=  281 fps=9.9 q=20.0 size=       1KiB time=00:00:04.66 bitrate=   1.2kbits/s speed=0.165x elapsed=0:00:28.29    \nframe=  293 fps= 10 q=20.0 size=       1KiB time=00:00:04.86 bitrate=   1.2kbits/s speed=0.169x elapsed=0:00:28.81    \n[out#0/matroska @ 00000225fcb24d00] video:1478KiB audio:0KiB subtitle:0KiB other streams:0KiB global headers:0KiB muxing overhead: 0.140890%\nframe=  300 fps= 10 q=24.0 Lsize=    1481KiB time=00:00:04.98 bitrate=2433.8kbits/s speed=0.172x elapsed=0:00:28.92    \n",
  "seconds": 29.338507175445557,
  "probe_out": {}
}